<mxfile host="app.diagrams.net" agent="Mozilla/5.0 (Windows NT 10.0; Win64; x64) AppleWebKit/537.36 (KHTML, like Gecko) Chrome/138.0.0.0 Safari/537.36 Edg/138.0.0.0" version="28.1.0">
  <diagram name="Page-1" id="zYoQJKuruc59RscXdtNj">
    <mxGraphModel dx="1887" dy="675" grid="1" gridSize="10" guides="1" tooltips="1" connect="1" arrows="1" fold="1" page="1" pageScale="1" pageWidth="850" pageHeight="1100" math="0" shadow="0">
      <root>
        <mxCell id="0" />
        <mxCell id="1" parent="0" />
        <mxCell id="ZP8F139_U9aVebwbNAbs-1" value="" style="html=1;outlineConnect=0;whiteSpace=wrap;fillColor=#ffff99;verticalLabelPosition=bottom;verticalAlign=top;align=center;shape=mxgraph.archimate3.actor;" parent="1" vertex="1">
          <mxGeometry x="-370" y="130" width="26.5" height="50" as="geometry" />
        </mxCell>
        <mxCell id="ZP8F139_U9aVebwbNAbs-2" value="ApplyLoanView" style="rounded=0;whiteSpace=wrap;html=1;" parent="1" vertex="1">
          <mxGeometry x="-260" y="120" width="120" height="60" as="geometry" />
        </mxCell>
        <mxCell id="ZP8F139_U9aVebwbNAbs-3" value="ApplyLoanController" style="rounded=0;whiteSpace=wrap;html=1;" parent="1" vertex="1">
          <mxGeometry x="-60" y="120" width="120" height="60" as="geometry" />
        </mxCell>
        <mxCell id="ZP8F139_U9aVebwbNAbs-4" value="ApplyLoanDAO" style="rounded=0;whiteSpace=wrap;html=1;direction=west;" parent="1" vertex="1">
          <mxGeometry x="140" y="120" width="120" height="60" as="geometry" />
        </mxCell>
        <mxCell id="ZP8F139_U9aVebwbNAbs-5" value="" style="endArrow=none;html=1;rounded=0;entryX=0.5;entryY=1;entryDx=0;entryDy=0;" parent="1" target="ZP8F139_U9aVebwbNAbs-2" edge="1">
          <mxGeometry width="50" height="50" relative="1" as="geometry">
            <mxPoint x="-200" y="1500" as="sourcePoint" />
            <mxPoint x="-90" y="290" as="targetPoint" />
          </mxGeometry>
        </mxCell>
        <mxCell id="ZP8F139_U9aVebwbNAbs-6" value="" style="endArrow=none;html=1;rounded=0;" parent="1" edge="1">
          <mxGeometry width="50" height="50" relative="1" as="geometry">
            <mxPoint x="200" y="1500" as="sourcePoint" />
            <mxPoint x="200" y="180" as="targetPoint" />
          </mxGeometry>
        </mxCell>
        <mxCell id="ZP8F139_U9aVebwbNAbs-7" value="" style="endArrow=none;html=1;rounded=0;entryX=0.5;entryY=1;entryDx=0;entryDy=0;" parent="1" target="ZP8F139_U9aVebwbNAbs-3" edge="1">
          <mxGeometry width="50" height="50" relative="1" as="geometry">
            <mxPoint y="1500" as="sourcePoint" />
            <mxPoint x="25" y="310" as="targetPoint" />
          </mxGeometry>
        </mxCell>
        <mxCell id="ZP8F139_U9aVebwbNAbs-8" value="Customer" style="text;html=1;align=center;verticalAlign=middle;resizable=0;points=[];autosize=1;strokeColor=none;fillColor=none;" parent="1" vertex="1">
          <mxGeometry x="-400" y="180" width="80" height="30" as="geometry" />
        </mxCell>
        <mxCell id="ZP8F139_U9aVebwbNAbs-9" value="" style="endArrow=classic;html=1;rounded=0;" parent="1" edge="1">
          <mxGeometry width="50" height="50" relative="1" as="geometry">
            <mxPoint x="-201.25" y="472" as="sourcePoint" />
            <mxPoint x="-1.25" y="472" as="targetPoint" />
          </mxGeometry>
        </mxCell>
        <mxCell id="ZP8F139_U9aVebwbNAbs-10" value="" style="endArrow=classic;html=1;rounded=0;" parent="1" edge="1">
          <mxGeometry width="50" height="50" relative="1" as="geometry">
            <mxPoint x="-1.25" y="492" as="sourcePoint" />
            <mxPoint x="198.75" y="492" as="targetPoint" />
          </mxGeometry>
        </mxCell>
        <mxCell id="ZP8F139_U9aVebwbNAbs-11" value="" style="endArrow=classic;html=1;rounded=0;" parent="1" edge="1">
          <mxGeometry width="50" height="50" relative="1" as="geometry">
            <mxPoint x="-361.25" y="452" as="sourcePoint" />
            <mxPoint x="-201.25" y="452" as="targetPoint" />
          </mxGeometry>
        </mxCell>
        <mxCell id="ZP8F139_U9aVebwbNAbs-12" value="" style="endArrow=classic;html=1;rounded=0;" parent="1" edge="1">
          <mxGeometry width="50" height="50" relative="1" as="geometry">
            <mxPoint y="580.18" as="sourcePoint" />
            <mxPoint x="-200" y="580.18" as="targetPoint" />
          </mxGeometry>
        </mxCell>
        <mxCell id="ZP8F139_U9aVebwbNAbs-13" value="" style="endArrow=classic;html=1;rounded=0;" parent="1" edge="1">
          <mxGeometry width="50" height="50" relative="1" as="geometry">
            <mxPoint x="-200" y="600.18" as="sourcePoint" />
            <mxPoint x="-370" y="600.18" as="targetPoint" />
          </mxGeometry>
        </mxCell>
        <mxCell id="ZP8F139_U9aVebwbNAbs-14" value="Request for loan" style="text;html=1;align=center;verticalAlign=middle;resizable=0;points=[];autosize=1;strokeColor=none;fillColor=none;" parent="1" vertex="1">
          <mxGeometry x="-346.25" y="450" width="110" height="30" as="geometry" />
        </mxCell>
        <mxCell id="ZP8F139_U9aVebwbNAbs-15" value="Verify Details" style="text;html=1;align=center;verticalAlign=middle;resizable=0;points=[];autosize=1;strokeColor=none;fillColor=none;" parent="1" vertex="1">
          <mxGeometry x="-151.25" y="450" width="90" height="30" as="geometry" />
        </mxCell>
        <mxCell id="ZP8F139_U9aVebwbNAbs-16" value="Loan Approval" style="text;html=1;align=center;verticalAlign=middle;resizable=0;points=[];autosize=1;strokeColor=none;fillColor=none;" parent="1" vertex="1">
          <mxGeometry x="43.75" y="470" width="100" height="30" as="geometry" />
        </mxCell>
        <mxCell id="ZP8F139_U9aVebwbNAbs-17" value="Retun Load Id" style="text;html=1;align=center;verticalAlign=middle;resizable=0;points=[];autosize=1;strokeColor=none;fillColor=none;" parent="1" vertex="1">
          <mxGeometry x="-145" y="548.18" width="100" height="30" as="geometry" />
        </mxCell>
        <mxCell id="ZP8F139_U9aVebwbNAbs-18" value="Send Loan Id" style="text;html=1;align=center;verticalAlign=middle;resizable=0;points=[];autosize=1;strokeColor=none;fillColor=none;" parent="1" vertex="1">
          <mxGeometry x="-335" y="570.18" width="90" height="30" as="geometry" />
        </mxCell>
        <mxCell id="ZP8F139_U9aVebwbNAbs-19" value="" style="endArrow=classic;html=1;rounded=0;" parent="1" edge="1">
          <mxGeometry width="50" height="50" relative="1" as="geometry">
            <mxPoint x="200" y="570.18" as="sourcePoint" />
            <mxPoint x="5" y="570.18" as="targetPoint" />
          </mxGeometry>
        </mxCell>
        <mxCell id="ZP8F139_U9aVebwbNAbs-20" value="Provides Loan Id" style="text;html=1;align=center;verticalAlign=middle;resizable=0;points=[];autosize=1;strokeColor=none;fillColor=none;" parent="1" vertex="1">
          <mxGeometry x="40" y="540.18" width="110" height="30" as="geometry" />
        </mxCell>
        <mxCell id="ZP8F139_U9aVebwbNAbs-58" value="" style="html=1;labelBackgroundColor=#ffffff;startArrow=none;startFill=0;startSize=6;endArrow=classic;endFill=1;endSize=6;jettySize=auto;orthogonalLoop=1;strokeWidth=1;dashed=1;fontSize=14;rounded=0;" parent="1" edge="1">
          <mxGeometry width="60" height="60" relative="1" as="geometry">
            <mxPoint x="200" y="652" as="sourcePoint" />
            <mxPoint y="652" as="targetPoint" />
          </mxGeometry>
        </mxCell>
        <mxCell id="ZP8F139_U9aVebwbNAbs-59" value="" style="html=1;labelBackgroundColor=#ffffff;startArrow=none;startFill=0;startSize=6;endArrow=classic;endFill=1;endSize=6;jettySize=auto;orthogonalLoop=1;strokeWidth=1;dashed=1;fontSize=14;rounded=0;" parent="1" edge="1">
          <mxGeometry width="60" height="60" relative="1" as="geometry">
            <mxPoint y="682" as="sourcePoint" />
            <mxPoint x="-200" y="682" as="targetPoint" />
          </mxGeometry>
        </mxCell>
        <mxCell id="ZP8F139_U9aVebwbNAbs-60" value="" style="html=1;labelBackgroundColor=#ffffff;startArrow=none;startFill=0;startSize=6;endArrow=classic;endFill=1;endSize=6;jettySize=auto;orthogonalLoop=1;strokeWidth=1;dashed=1;fontSize=14;rounded=0;" parent="1" edge="1">
          <mxGeometry width="60" height="60" relative="1" as="geometry">
            <mxPoint x="-200" y="702" as="sourcePoint" />
            <mxPoint x="-400" y="702" as="targetPoint" />
          </mxGeometry>
        </mxCell>
        <mxCell id="ZP8F139_U9aVebwbNAbs-61" value="Provides a Loan Rejection Message" style="text;html=1;align=center;verticalAlign=middle;resizable=0;points=[];autosize=1;strokeColor=none;fillColor=none;" parent="1" vertex="1">
          <mxGeometry x="-215" y="650" width="220" height="30" as="geometry" />
        </mxCell>
        <mxCell id="ZP8F139_U9aVebwbNAbs-62" value="Provides a Loan Rejection Message" style="text;html=1;align=center;verticalAlign=middle;resizable=0;points=[];autosize=1;strokeColor=none;fillColor=none;" parent="1" vertex="1">
          <mxGeometry x="-417.5" y="670" width="220" height="30" as="geometry" />
        </mxCell>
        <mxCell id="ZP8F139_U9aVebwbNAbs-63" value="Loan Id not created due to rejection" style="text;html=1;align=center;verticalAlign=middle;resizable=0;points=[];autosize=1;strokeColor=none;fillColor=none;" parent="1" vertex="1">
          <mxGeometry x="-10" y="620" width="210" height="30" as="geometry" />
        </mxCell>
        <mxCell id="ZP8F139_U9aVebwbNAbs-64" value="DB" style="rounded=0;whiteSpace=wrap;html=1;direction=west;" parent="1" vertex="1">
          <mxGeometry x="342.5" y="120" width="120" height="60" as="geometry" />
        </mxCell>
        <mxCell id="ZP8F139_U9aVebwbNAbs-65" value="" style="endArrow=none;html=1;rounded=0;" parent="1" edge="1">
          <mxGeometry width="50" height="50" relative="1" as="geometry">
            <mxPoint x="403" y="1500" as="sourcePoint" />
            <mxPoint x="402.5" y="180" as="targetPoint" />
          </mxGeometry>
        </mxCell>
        <mxCell id="ZP8F139_U9aVebwbNAbs-67" value="" style="endArrow=classic;html=1;rounded=0;" parent="1" edge="1">
          <mxGeometry width="50" height="50" relative="1" as="geometry">
            <mxPoint x="198.75" y="510.33000000000004" as="sourcePoint" />
            <mxPoint x="398.75" y="510.33000000000004" as="targetPoint" />
          </mxGeometry>
        </mxCell>
        <mxCell id="ZP8F139_U9aVebwbNAbs-68" value="Generate Loan ID" style="text;html=1;align=center;verticalAlign=middle;resizable=0;points=[];autosize=1;strokeColor=none;fillColor=none;" parent="1" vertex="1">
          <mxGeometry x="233.75" y="488.33000000000004" width="120" height="30" as="geometry" />
        </mxCell>
        <mxCell id="ZP8F139_U9aVebwbNAbs-69" value="" style="endArrow=classic;html=1;rounded=0;" parent="1" edge="1">
          <mxGeometry width="50" height="50" relative="1" as="geometry">
            <mxPoint x="396.25" y="552" as="sourcePoint" />
            <mxPoint x="201.25" y="552" as="targetPoint" />
          </mxGeometry>
        </mxCell>
        <mxCell id="ZP8F139_U9aVebwbNAbs-70" value="Loan ID generation" style="text;html=1;align=center;verticalAlign=middle;resizable=0;points=[];autosize=1;strokeColor=none;fillColor=none;" parent="1" vertex="1">
          <mxGeometry x="226.25" y="522" width="130" height="30" as="geometry" />
        </mxCell>
        <mxCell id="ZP8F139_U9aVebwbNAbs-88" value="" style="html=1;labelBackgroundColor=#ffffff;startArrow=none;startFill=0;startSize=6;endArrow=classic;endFill=1;endSize=6;jettySize=auto;orthogonalLoop=1;strokeWidth=1;dashed=1;fontSize=14;rounded=0;" parent="1" edge="1">
          <mxGeometry width="60" height="60" relative="1" as="geometry">
            <mxPoint x="397.5" y="622" as="sourcePoint" />
            <mxPoint x="197.5" y="622" as="targetPoint" />
          </mxGeometry>
        </mxCell>
        <mxCell id="ZP8F139_U9aVebwbNAbs-89" value="Loan Id not created due to rejection" style="text;html=1;align=center;verticalAlign=middle;resizable=0;points=[];autosize=1;strokeColor=none;fillColor=none;" parent="1" vertex="1">
          <mxGeometry x="201.25" y="590" width="210" height="30" as="geometry" />
        </mxCell>
        <mxCell id="ZP8F139_U9aVebwbNAbs-90" value="" style="endArrow=classic;html=1;rounded=0;" parent="1" edge="1">
          <mxGeometry width="50" height="50" relative="1" as="geometry">
            <mxPoint x="-200" y="262" as="sourcePoint" />
            <mxPoint y="262" as="targetPoint" />
          </mxGeometry>
        </mxCell>
        <mxCell id="ZP8F139_U9aVebwbNAbs-91" value="" style="endArrow=classic;html=1;rounded=0;" parent="1" edge="1">
          <mxGeometry width="50" height="50" relative="1" as="geometry">
            <mxPoint y="282" as="sourcePoint" />
            <mxPoint x="200" y="282" as="targetPoint" />
          </mxGeometry>
        </mxCell>
        <mxCell id="ZP8F139_U9aVebwbNAbs-92" value="" style="endArrow=classic;html=1;rounded=0;" parent="1" edge="1">
          <mxGeometry width="50" height="50" relative="1" as="geometry">
            <mxPoint x="-360" y="242" as="sourcePoint" />
            <mxPoint x="-200" y="242" as="targetPoint" />
          </mxGeometry>
        </mxCell>
        <mxCell id="ZP8F139_U9aVebwbNAbs-93" value="" style="endArrow=classic;html=1;rounded=0;" parent="1" edge="1">
          <mxGeometry width="50" height="50" relative="1" as="geometry">
            <mxPoint y="382" as="sourcePoint" />
            <mxPoint x="-200" y="382" as="targetPoint" />
          </mxGeometry>
        </mxCell>
        <mxCell id="ZP8F139_U9aVebwbNAbs-94" value="" style="endArrow=classic;html=1;rounded=0;" parent="1" edge="1">
          <mxGeometry width="50" height="50" relative="1" as="geometry">
            <mxPoint x="-200" y="402" as="sourcePoint" />
            <mxPoint x="-370" y="402" as="targetPoint" />
          </mxGeometry>
        </mxCell>
        <mxCell id="ZP8F139_U9aVebwbNAbs-95" value="Application Submitted" style="text;html=1;align=center;verticalAlign=middle;resizable=0;points=[];autosize=1;strokeColor=none;fillColor=none;" parent="1" vertex="1">
          <mxGeometry x="-360" y="240" width="140" height="30" as="geometry" />
        </mxCell>
        <mxCell id="ZP8F139_U9aVebwbNAbs-96" value="Save Application Details" style="text;html=1;align=center;verticalAlign=middle;resizable=0;points=[];autosize=1;strokeColor=none;fillColor=none;" parent="1" vertex="1">
          <mxGeometry x="-180" y="240" width="150" height="30" as="geometry" />
        </mxCell>
        <mxCell id="ZP8F139_U9aVebwbNAbs-97" value="Save Application Details" style="text;html=1;align=center;verticalAlign=middle;resizable=0;points=[];autosize=1;strokeColor=none;fillColor=none;" parent="1" vertex="1">
          <mxGeometry x="20" y="260" width="150" height="30" as="geometry" />
        </mxCell>
        <mxCell id="ZP8F139_U9aVebwbNAbs-98" value="Retun User Id" style="text;html=1;align=center;verticalAlign=middle;resizable=0;points=[];autosize=1;strokeColor=none;fillColor=none;" parent="1" vertex="1">
          <mxGeometry x="-145" y="350" width="100" height="30" as="geometry" />
        </mxCell>
        <mxCell id="ZP8F139_U9aVebwbNAbs-99" value="Send User Id" style="text;html=1;align=center;verticalAlign=middle;resizable=0;points=[];autosize=1;strokeColor=none;fillColor=none;" parent="1" vertex="1">
          <mxGeometry x="-335" y="372" width="90" height="30" as="geometry" />
        </mxCell>
        <mxCell id="ZP8F139_U9aVebwbNAbs-100" value="" style="endArrow=classic;html=1;rounded=0;" parent="1" edge="1">
          <mxGeometry width="50" height="50" relative="1" as="geometry">
            <mxPoint x="200" y="372" as="sourcePoint" />
            <mxPoint x="5" y="372" as="targetPoint" />
          </mxGeometry>
        </mxCell>
        <mxCell id="ZP8F139_U9aVebwbNAbs-101" value="Provides User Id" style="text;html=1;align=center;verticalAlign=middle;resizable=0;points=[];autosize=1;strokeColor=none;fillColor=none;" parent="1" vertex="1">
          <mxGeometry x="40" y="342" width="110" height="30" as="geometry" />
        </mxCell>
        <mxCell id="ZP8F139_U9aVebwbNAbs-102" value="" style="endArrow=classic;html=1;rounded=0;" parent="1" edge="1">
          <mxGeometry width="50" height="50" relative="1" as="geometry">
            <mxPoint x="200" y="300.33000000000004" as="sourcePoint" />
            <mxPoint x="400" y="300.33000000000004" as="targetPoint" />
          </mxGeometry>
        </mxCell>
        <mxCell id="ZP8F139_U9aVebwbNAbs-103" value="Store Application Details" style="text;html=1;align=center;verticalAlign=middle;resizable=0;points=[];autosize=1;strokeColor=none;fillColor=none;" parent="1" vertex="1">
          <mxGeometry x="220" y="278.33000000000004" width="150" height="30" as="geometry" />
        </mxCell>
        <mxCell id="ZP8F139_U9aVebwbNAbs-104" value="" style="endArrow=classic;html=1;rounded=0;" parent="1" edge="1">
          <mxGeometry width="50" height="50" relative="1" as="geometry">
            <mxPoint x="397.5" y="342.00000000000006" as="sourcePoint" />
            <mxPoint x="202.5" y="342.00000000000006" as="targetPoint" />
          </mxGeometry>
        </mxCell>
        <mxCell id="ZP8F139_U9aVebwbNAbs-105" value="User ID generation" style="text;html=1;align=center;verticalAlign=middle;resizable=0;points=[];autosize=1;strokeColor=none;fillColor=none;" parent="1" vertex="1">
          <mxGeometry x="232.5" y="312.00000000000006" width="120" height="30" as="geometry" />
        </mxCell>
        <mxCell id="jqmaGK9V_5G6q6PQScqV-17" value="UserName, AccountNo" style="text;html=1;align=center;verticalAlign=middle;resizable=0;points=[];autosize=1;strokeColor=none;fillColor=none;" vertex="1" parent="1">
          <mxGeometry x="-366.25" y="220" width="150" height="30" as="geometry" />
        </mxCell>
      </root>
    </mxGraphModel>
  </diagram>
</mxfile>
